<svg xmlns="http://www.w3.org/2000/svg" xmlns:xlink="http://www.w3.org/1999/xlink" style="margin:auto;background:#f1f2f3;display:block;z-index:1;position:relative" width="2560" height="999" preserveAspectRatio="xMidYMid" viewBox="0 0 2560 999">
<g transform=""><g transform="translate(1987.9788910886186,135.33527992693314) scale(100)" opacity="0.4">
  <path d="M8.6912 0 C8.6912 2.0608 9.022775246445828 2.8296948478810284 7.992375246445829 4.6144 S6.1303051521189715 6.496399989371313 4.345600000000001 7.526799989371313 S2.0608000000000004 9.228800000000001 5.651010189985548e-16 9.228800000000001 S-2.560894847881027 8.557199989371314 -4.345599999999998 7.526799989371314 S-6.961975246445826 6.399105152118974 -7.992375246445827 4.614400000000003 S-8.6912 2.060800000000001 -8.6912 1.0643650260749477e-15 S-9.022775246445828 -2.8296948478810267 -7.99237524644583 -4.614399999999998 S-6.130305152118974 -6.4963999893713105 -4.345600000000004 -7.526799989371312 S-2.0608000000000017 -9.228800000000001 -1.695303056995664e-15 -9.228800000000001 S2.560894847881022 -8.557199989371316 4.345599999999994 -7.526799989371317 S6.961975246445825 -6.399105152118976 7.992375246445826 -4.614400000000005 S8.6912 -2.060800000000002 8.6912 -2.1287300521498954e-15" fill="#0051a2" stroke-width="0">
    <animateTransform attributeName="transform" type="rotate" dur="15s" repeatCount="indefinite" values="0;30"></animateTransform>
  </path>
</g><g transform="translate(2129.5746693063425,25.502335912319722) scale(100)" opacity="0.4">
  <path d="M10.42944 0 C10.42944 2.47296 10.827330295734996 3.3956338174572345 9.590850295734995 5.53728 S7.356366182542766 7.795679987245574 5.214720000000001 9.032159987245574 S2.472960000000001 11.074560000000002 6.781212227982657e-16 11.074560000000002 S-3.0730738174572316 10.268639987245576 -5.214719999999997 9.032159987245576 S-8.354370295734991 7.678926182542769 -9.590850295734992 5.537280000000004 S-10.42944 2.4729600000000014 -10.42944 1.277238031289937e-15 S-10.827330295734996 -3.3956338174572323 -9.590850295734997 -5.537279999999998 S-7.35636618254277 -7.795679987245573 -5.214720000000004 -9.032159987245574 S-2.4729600000000023 -11.074560000000002 -2.034363668394797e-15 -11.074560000000002 S3.0730738174572263 -10.268639987245578 5.214719999999993 -9.03215998724558 S8.354370295734991 -7.678926182542771 9.590850295734992 -5.537280000000006 S10.42944 -2.4729600000000027 10.42944 -2.554476062579874e-15" fill="#0c63b0" stroke-width="0">
    <animateTransform attributeName="transform" type="rotate" dur="15s" repeatCount="indefinite" values="0;20"></animateTransform>
  </path>
</g><g transform="translate(2469.4045370288795,-238.09672972275223) scale(100)" opacity="0.2">
  <path d="M14.601215999999999 0 C14.601215999999999 3.4621439999999994 15.15826241402899 4.753887344440128 13.42719041402899 7.752191999999999 S10.298912655559873 10.913951982143804 7.300608000000001 12.645023982143805 S3.4621440000000003 15.504384 9.493697119175719e-16 15.504384 S-4.302303344440125 14.376095982143806 -7.300607999999996 12.645023982143806 S-11.696118414028986 10.750496655559875 -13.427190414028987 7.752192000000005 S-14.601215999999999 3.462144000000001 -14.601215999999999 1.788133243805912e-15 S-15.158262414028991 -4.753887344440123 -13.427190414028992 -7.7521919999999955 S-10.298912655559876 -10.913951982143802 -7.300608000000006 -12.645023982143803 S-3.462144000000002 -15.504384 -2.8481091357527155e-15 -15.504384 S4.3023033444401175 -14.37609598214381 7.30060799999999 -12.645023982143812 S11.696118414028986 -10.750496655559877 13.427190414028987 -7.752192000000007 S14.601215999999999 -3.462144000000003 14.601215999999999 -3.576266487611824e-15" fill="#1b75be" stroke-width="0">
    <animateTransform attributeName="transform" type="rotate" dur="17s" repeatCount="indefinite" values="0;40"></animateTransform>
  </path></g></g>
</svg>