<svg xmlns="http://www.w3.org/2000/svg" role="img" viewBox="0 0 24 24"><defs><style>.cls-1{fill:#2e3032}.cls-2{fill:#4a4d50}.cls-3{fill:#fff}</style></defs>
<title>css icon</title>
<g><g>
<path class="cls-1" d="M17.78,7.08l-1,11.67-4.69,1.3-4.66-1.3-1-11.67Z"/>
<path class="cls-2" d="M15.84,18l.89-10H12.06v11Z"/>
<path class="cls-3" d="M8.73,12.36l.13,1.44h3.2V12.36Z"/>
<path class="cls-3" d="M12.06,9.47H8.47L8.6,10.9h3.46Z"/>
<path class="cls-3" d="M12.06,17.57V16.08h0l-1.59-.43-.1-1.14H8.92l.2,2.25,2.93.81Z"/>
<path class="cls-1" d="M9,3.91h1.73v.73h-1v.72h1v.73H9Z"/>
<path class="cls-1" d="M11.12,3.91h1.73v.63h-1v.13h1V6.12H11.12V5.45h1V5.33h-1Z"/>
<path class="cls-1" d="M13.2,3.91h1.73v.63h-1v.13h1V6.12H13.2V5.45h1V5.33h-1Z"/>
<path class="cls-3" d="M13.82,13.8l-.17,1.85-1.59.43v1.49L15,16.76l0-.24.34-3.77,0-.39.26-2.89H12.06V10.9h2l-.13,1.46H12.06V13.8Z"/></g></g></svg>