<svg xmlns="http://www.w3.org/2000/svg" id="Layer_1" viewBox="0 0 148 36"><style>.st0{fill:#fff}</style><path d="M35 3.9h19.2v5.2H48v22h-7v-22h-6.2V3.9h.2z" class="st0"/><path d="M51.4 11.9h6v3c.8-2.4 3.6-3.4 6-3.4v6.2c-.8-.4-1.6-.6-2.6-.6-2 0-2.8.6-3.4 1.4v12.4h-6.2v-19h.2zm13.8 0h6.2v19.2h-6.2V11.9zm8.2 0h6.2v2.6c1.4-2 3.2-3 5.4-3 1.8 0 3.8 1.2 3.8 3 1.4-2 3.2-3 5.4-3 2.4 0 4.4 1.4 4.4 4.2v15.6h-6.2V17.5c0-1-.4-1.8-1.4-1.8-.6 0-1.2.2-1.6.8l-.4.4v14h-6.2V17.5c0-1-.4-1.8-1.4-1.8-.6 0-1.2.2-1.6.8l-.4.4v14h-6.2v-19h.2zm27.6-8h6.2v9.2c.8-1 2.4-1.6 3.8-1.6 4.2 0 6.6 4.2 6.6 9.8 0 4.4-1.8 10-7 10-2.4 0-4-1.2-5.2-3l-1.2 2.8H101V3.9zm6.2 21c-.2 1.6.8 2.4 2 2.4 1.8 0 2-1.8 2-5.2v-1.4c0-3.8 0-5.8-2-5.8-.8 0-1.4.4-1.8.8l-.4.4v8.8h.2zm12.2-21h6.2v27.2h-6.2V3.9zm14 18.4c0 1.6.4 4.6 2.8 4.6 1.4 0 2.8-1 3.2-2.6l4.2 1.6c-.2.8-2.2 5.2-7.8 5.2-6 0-8.6-4.8-8.6-10.2s2.8-10 8.6-10c6 0 8 5.2 8 10.2v1.4h-10.4v-.2zm4.6-3.6c0-1.8-.2-3.8-2.4-3.8-1.8 0-2.2 2-2.2 3.8h4.6zm-72.8-15h6.2v5.6h-6.2V3.7zM22.4 24.5c0 .4-.2.8-.4 1.2v.4c-.2.2-.4.4-.6.4-1.4 1.2-2.6 1.8-4.4 2.4-.6.2-2 .6-3.8.6l-2.6 1.4c3.2.8 5.8 0 7-.2 2-.6 3.2-1.4 4.8-2.8.4-.2 2-1.8 3.2-4 .2-.4.4-.8.6-1.4l-3.8 2zM13.2 5.7h.8c-.4 0-.6 0-1 .2l2.4 1.2c1.8 0 3.8.8 5 2.2-.2 0-.6 0-.8.2l4 2.2v-.2l.4.4 2.6 1.4v-.8c-.8-2.2-2.2-4.2-4.2-5.6l-.2-.2c-3-2.2-6-2.8-7.4-2.8h-3c-.4 0-.8.2-1 .2s-.4.2-.6.2l2.4 1.4h.6zM2.6 21.9c-.4-1-.6-2.2-.6-2.6-.2-1.2-.2-1.2-.2-2.2v-1.2c.2-.8.4-1.8 1-3V9.3c-.4.6-.8 1.2-1.2 2-1 1.8-1.2 3.2-1.4 4.4 0 .4-.2 1-.2 1.4 0 1.2 0 1.2.2 2.4 0 .8.4 2.2 1 3.4.4.8.8 1.6 1.2 2.2 0 0 0 .2.2.2l.2.2v-4c0 .2 0 .2-.2.4z" class="st0"/><path d="M22.8 15.5c-.2.2-.4.6-.6.8.6 1.2 1.2 2.4 1.6 3.6.2-.2.2-.4.4-.6 1-1.8 1.2-4 .6-6 0 0 0-.2-.2-.2 0-.2-.2-.4-.2-.6l-.2-.2c0-.2-.2-.2-.2-.4l-.4-.2c.2 1.2 0 2.6-.8 3.8zM12.2 5.7c-.6 0-1.2.2-1.8.4.4.2 1 .2 1.4.4l1.2-.6-.4-.2h-.4zm14.2 16.6l8.4-4.6-8.2-4.4c1.2 3.6.6 6.6-.2 9zm-11.6-15c-.4 0-.6.2-1 .2 1.2.6 2.4 1.4 3.4 2.4.8-.2 1.6-.4 2.2-.4l-4-2.4c-.2 0-.4.2-.6.2zm4 17.2c-4.8.6-9.6-1.6-12.6-5.2-1 1.4-1.8 2.6-2.2 3.8v1.2c.2.2.4.6.6.8.6.8 2.6 2.8 5.6 3.6 1 .4 2.2.4 3 .4l9-4.8c0-.4.2-.8.2-1.2-1 .8-2.2 1.2-3.6 1.4zm-12.4-8c1-1 2.2-2 3.6-3 0-.2 0-.4-.2-.6-.6-1.6-.4-3.4.4-4.8l.2-.2c-1-.2-1.8-.4-2.6-.2-.6.4-1 .8-1.4 1.4-.6 1.2-.8 2.4-.8 3.6 0 .8.2 1.8.4 2.6.2.4.2.8.4 1.2zm5.2-4.2c0 .2 0 .2 0 0 1.2-.4 2.4-1.2 3.8-1.6-1.2-1-2.2-1.6-3.2-2.2-.2.2-.4.4-.4.6-.6 1-.8 2-.2 3.2zm6.8 4c.6 0 1.2-.2 1.6-.6-.8-1.4-2-2.8-3.2-4-.2 0-.4.2-.6.2-1.2.8-2.6 1.4-3.6 2.2 1.2 1.6 3.6 2.6 5.8 2.2zM6.8 5.7c1-.6 1.8-1 3.4-1.4L2.8.3v9c1.6-2.2 3.6-3.4 4-3.6zm14.6 8.8c.6-.8.6-2 .2-3.2 0-.2 0-.2-.2-.2-.8 0-1.8.2-2.8.4 1 .8 2 2 2.8 3 0 .2 0 0 0 0z" class="st0"/><path d="M18.6 22.7c1.4-.2 2.8-.8 3.8-1.4-.2-1.2-.8-2.6-1.4-4-.8.4-1.6.8-2.4.8-2.8.4-5.8-.8-7.6-3-1.4 1-2.6 2-3.6 3 2.6 3.2 7 5.2 11.2 4.6zM5.2 17.9c-.4-.6-.6-1.2-.8-2-.8-1.8-.8-3.6-.4-5.4-.2.6-.6 1-.8 1.6-.2.2-.4.4-.4.8v8.8c.4-1.2 1.4-2.6 2.4-3.8zm19.6 3.6l-.6.6v.6l.6-1.2zM3.4 26.3c-.2-.2-.4-.4-.6-.8v9.4l8-4.4c-.2 0-.6-.2-.8-.2-3.8-.8-5.8-3-6.6-4zm140.6 3c0-1 .8-2 2-2 1 0 2 .8 2 2 0 1-.8 2-2 2s-2-1-2-2zm.4 0c0 .8.8 1.6 1.6 1.6s1.6-.6 1.6-1.6c0-.8-.8-1.6-1.6-1.6-1 0-1.6.6-1.6 1.6zm2.6 1h-.4l-.6-1h-.4v1h-.4v-2.2h1c.2 0 .4 0 .6.2.2 0 .2.2.2.4 0 .4-.4.6-.8.6l.8 1zm-1.2-1.2c.4 0 .8 0 .8-.4 0-.2-.2-.4-.6-.4h-.6v.6h.4v.2zm-118.6.2c0-1 .8-2 2-2 1 0 2 .8 2 2 0 1-.8 2-2 2-1 0-2-1-2-2zm.4 0c0 .8.8 1.6 1.6 1.6s1.6-.6 1.6-1.6c0-.8-.8-1.6-1.6-1.6s-1.6.6-1.6 1.6zm2.6 1h-.4l-.6-1h-.4v1h-.4v-2.2h1c.2 0 .4 0 .6.2.2 0 .2.2.2.4 0 .4-.4.6-.8.6l.8 1zm-1-1.2c.4 0 .8 0 .8-.4 0-.2-.2-.4-.6-.4h-.6v.6h.4v.2z" class="st0"/></svg>