<svg xmlns="http://www.w3.org/2000/svg" xmlns:xlink="http://www.w3.org/1999/xlink">
  <symbol fill="currentColor" class="mi-apps" viewBox="0 0 24 24" id="apps" xmlns="http://www.w3.org/2000/svg">
    <path d="M5 8h2c.6 0 1-.4 1-1V5c0-.6-.4-1-1-1H5c-.6 0-1 .4-1 1v2c0 .6.4 1 1 1m6 12h2c.6 0 1-.4 1-1v-2c0-.6-.4-1-1-1h-2c-.6 0-1 .4-1 1v2c0 .6.4 1 1 1m-6 0h2c.6 0 1-.4 1-1v-2c0-.6-.4-1-1-1H5c-.6 0-1 .4-1 1v2c0 .6.4 1 1 1m0-6h2c.6 0 1-.4 1-1v-2c0-.6-.4-1-1-1H5c-.6 0-1 .4-1 1v2c0 .6.4 1 1 1m6 0h2c.6 0 1-.4 1-1v-2c0-.6-.4-1-1-1h-2c-.6 0-1 .4-1 1v2c0 .6.4 1 1 1m5-9v2c0 .6.4 1 1 1h2c.6 0 1-.4 1-1V5c0-.6-.4-1-1-1h-2c-.6 0-1 .4-1 1m-5 3h2c.6 0 1-.4 1-1V5c0-.6-.4-1-1-1h-2c-.6 0-1 .4-1 1v2c0 .6.4 1 1 1m6 6h2c.6 0 1-.4 1-1v-2c0-.6-.4-1-1-1h-2c-.6 0-1 .4-1 1v2c0 .6.4 1 1 1m0 6h2c.6 0 1-.4 1-1v-2c0-.6-.4-1-1-1h-2c-.6 0-1 .4-1 1v2c0 .6.4 1 1 1" />
  </symbol>
  <symbol fill="currentColor" class="mi-clipboard" viewBox="0 0 24 24" id="clipboard" xmlns="http://www.w3.org/2000/svg">
    <path d="M8 18h4v-2H8zM18 5h-3c0-1.66-1.34-3-3-3S9 3.34 9 5H6c-1.1 0-2 .9-2 2v13c0 1.1.9 2 2 2h12c1.1 0 2-.9 2-2V7c0-1.1-.9-2-2-2m0 15H6V7h2v1h8V7h2zM8 15h8v-2H8zm0-3h8v-2H8z"/>
  </symbol>
  <symbol fill="currentColor" class="mi-code" viewBox="0 0 24 24" id="code" xmlns="http://www.w3.org/2000/svg">
    <path d="M17.12 8.12a.996.996 0 0 1 1.41 0l3.18 3.18c.39.39.39 1.02 0 1.41l-3.18 3.18c-.38.38-1.02.38-1.41-.01a.996.996 0 0 1 0-1.41S19.59 12 19.59 12l-2.47-2.47a.996.996 0 0 1 0-1.41m-10.24 0a.996.996 0 0 0-1.41 0L2.29 11.3a.996.996 0 0 0 0 1.41s3.18 3.18 3.18 3.18c.38.38 1.02.38 1.41-.01a.996.996 0 0 0 0-1.41S4.41 12 4.41 12l2.47-2.47a.996.996 0 0 0 0-1.41m3.07 10.64 5.92-12.69c.23-.5.02-1.1-.48-1.33s-1.1-.02-1.33.48L8.14 17.91c-.23.5-.02 1.1.48 1.33q.21.09.42.09c.38 0 .74-.21.91-.58Z"/>
  </symbol>
  <symbol fill="currentColor" class="mi-download" viewBox="0 0 24 24" id="download" xmlns="http://www.w3.org/2000/svg">
    <path d="M19 13v6H5v-6c0-.55-.45-1-1-1s-1 .45-1 1v7c0 .55.45 1 1 1h16c.55 0 1-.45 1-1v-7c0-.55-.45-1-1-1s-1 .45-1 1m-6-.33 1.88-1.88a.996.996 0 1 1 1.41 1.41l-3.59 3.59a.996.996 0 0 1-1.41 0L7.7 12.2a.996.996 0 1 1 1.41-1.41l1.88 1.88V4c0-.55.45-1 1-1s1 .45 1 1v8.67Z" />
  </symbol>
  <symbol fill="currentColor" class="mi-hand" viewBox="0 0 24 24" id="hand" xmlns="http://www.w3.org/2000/svg">
    <path d="M18.77 5.33c-.69 0-1.25.56-1.25 1.25v4.17c0 .23-.18.42-.42.42s-.42-.18-.42-.42V4.08a1.25 1.25 0 0 0-2.5 0v6.67c0 .23-.18.42-.42.42s-.42-.18-.42-.42v-7.5a1.25 1.25 0 0 0-2.5 0v7.49c0 .23-.18.42-.42.42s-.42-.18-.42-.42V5.75a1.25 1.25 0 0 0-2.5 0v9.51L4.07 13.3a1.244 1.244 0 0 0-1.5 1.96L8.22 21c.62.64 1.48 1 2.38 1h5.42c2.21 0 4-1.79 4-4V6.58c0-.69-.56-1.25-1.25-1.25" />
  </symbol>
  <symbol fill="currentColor" class="mi-launch" viewBox="0 0 24 24" id="launch" xmlns="http://www.w3.org/2000/svg">
    <path d="M19.78 19.78H4.22V4.22h6.67c.61 0 1.11-.5 1.11-1.11S11.5 2 10.89 2H3c-.55 0-1 .45-1 1v18c0 .55.45 1 1 1h18c.55 0 1-.45 1-1v-7.89c0-.61-.5-1.11-1.11-1.11s-1.11.5-1.11 1.11zM14.22 3.11c0 .61.5 1.11 1.11 1.11h2.88L8.07 14.36c-.43.43-.43 1.13 0 1.57.43.43 1.13.43 1.57 0L19.78 5.79v2.88c0 .61.5 1.11 1.11 1.11S22 9.28 22 8.67V3c0-.55-.45-1-1-1h-5.67c-.61 0-1.11.5-1.11 1.11" />
  </symbol>
  <symbol fill="currentColor" class="mi-layer" viewBox="0 0 24 24" id="layer" xmlns="http://www.w3.org/2000/svg">
    <path d="M20.01 10.87 21.9 12 12 17.9 2.1 12l1.89-1.13L12 15.64zM12 2.1 2.1 8l9.9 5.9L21.9 8zm0 17.55-8.01-4.78L2.1 16l9.9 5.9 9.9-5.9-1.89-1.13L12 19.64Z"/>
  </symbol>
  <symbol fill="currentColor" class="mi-map" viewBox="0 0 24 24" id="map" xmlns="http://www.w3.org/2000/svg">
    <path d="M20.97 2.32c-.11 0-.23.02-.35.06l-5.4 1.98-6.3-2.29a.96.96 0 0 0-.67 0l-5.6 1.95c-.4.14-.67.52-.67.94v15.78a1.003 1.003 0 0 0 1.35.94l5.29-1.96 6.29 2.22a.96.96 0 0 0 .64.01l5.71-1.87a1 1 0 0 0 .69-.95l.03-15.81c0-.57-.47-1-1-1Zm-5.72 17.62-5.97-2.11-.67-.23V4.08l5.93 2.16.69.25h.03v13.45Z" />
  </symbol>
  <symbol fill="currentColor" class="mi-map-markers" viewBox="0 0 24 24" id="map-markers" xmlns="http://www.w3.org/2000/svg">
    <path d="M6.9 8A4.955 4.955 0 0 0 2 13v.04a5.04 5.04 0 0 0 3.47 4.83l.96 3.71c.16.45.79.45.95 0l.96-3.71a5.06 5.06 0 0 0 3.21-6.4A5.07 5.07 0 0 0 6.91 8Zm.52 6.94c-1.56.38-2.94-1-2.56-2.56.18-.73.78-1.34 1.51-1.51 1.56-.38 2.94 1 2.56 2.56-.18.73-.78 1.34-1.51 1.51m14.39-3.22c-.53-1.59-2-2.69-3.68-2.75a3.92 3.92 0 0 0-3.88 3.96v.03A3.99 3.99 0 0 0 17 16.78l.76 2.94c.12.36.63.36.75 0l.76-2.94c2.1-.7 3.24-2.97 2.54-5.07Zm-2.06 1.55a1.66 1.66 0 0 1-1.2 1.2c-1.24.3-2.32-.79-2.03-2.03.14-.58.62-1.06 1.2-1.2 1.24-.3 2.32.79 2.03 2.03m-3.89-9.18a3.1 3.1 0 0 0-2.84-2.12 3.034 3.034 0 0 0-3 3.06v.02c0 1.34.85 2.54 2.12 2.96l.59 2.27c.1.27.48.27.58 0l.59-2.27a3.097 3.097 0 0 0 1.97-3.92Zm-1.59 1.2a1.29 1.29 0 1 1-2.5-.64 1.29 1.29 0 1 1 2.5.64" />
  </symbol>
  <symbol fill="currentColor" class="mi-menu" viewBox="0 0 24 24" id="menu" xmlns="http://www.w3.org/2000/svg">
    <path d="M4 18h16c.55 0 1-.45 1-1s-.45-1-1-1H4c-.55 0-1 .45-1 1s.45 1 1 1m0-5h16c.55 0 1-.45 1-1s-.45-1-1-1H4c-.55 0-1 .45-1 1s.45 1 1 1M3 7c0 .55.45 1 1 1h16c.55 0 1-.45 1-1s-.45-1-1-1H4c-.55 0-1 .45-1 1" />
  </symbol>
  <symbol fill="currentColor" class="mi-search" viewBox="0 0 24 24" id="search" xmlns="http://www.w3.org/2000/svg">
    <path d="m16.38 14.92-.66.05-.41-.41c2.44-2.81 2.28-7.1-.5-9.7S7.8 2.4 5.17 4.94a6.99 6.99 0 0 0-.08 9.98c2.61 2.61 6.77 2.72 9.52.34l.41.41-.05.65 3.89 3.89a.996.996 0 1 0 1.41-1.41l-3.88-3.88Zm-2.81-1.41a5.016 5.016 0 0 1-7.08 0c-1.95-1.95-1.95-5.13 0-7.08s5.13-1.95 7.08 0 1.95 5.13 0 7.08" />
  </symbol>
  <symbol fill="currentColor" class="mi-trimble-logo" viewBox="0 0 24 24" id="trimble-logo" xmlns="http://www.w3.org/2000/svg">
    <path d="M14.41 14.14c-.1-.87-.3-1.73-.62-2.54a4.03 4.03 0 0 1-4.18-.76c-.83.86-1.57 1.81-2.22 2.81 1.91 1.56 5.05 1.97 7.02.49M9.63 9.53c.59-.55 1.23-1.06 1.9-1.51a6.2 6.2 0 0 0-2.1-1.27c-.56.87-.48 2.01.2 2.79m2.59-2.02c.46-.34.95-.61 1.48-.82a3.16 3.16 0 0 0-3.56-.59c.77.34 1.48.82 2.09 1.41m-6.26-.97c-1.34 1.9-.71 4.67.84 6.41a20 20 0 0 1 2.26-2.84c-.86-1-1.03-2.42-.4-3.59-.89-.22-1.82-.21-2.7.02m2.7-.02 5.49 3.71c.66-.84.67-2.02.03-2.87-.5.2-.96.48-1.38.81.53.63.99 1.32 1.35 2.06M9.23 5.67c.59-.42 1.29-.65 2.01-.67-1.48-.25-3-.08-4.39.5.8-.09 1.61-.03 2.38.17m4.27 5.09c-.36-.76-.82-1.46-1.36-2.09-.68.45-1.32.96-1.92 1.51.9.79 2.17 1.02 3.28.58m1.95-2.11c.13.92-.23 1.84-.94 2.45.29.74.51 1.5.64 2.28a4.69 4.69 0 0 0 .3-4.73m-.17 5.91c.02.57 0 1.15-.08 1.72a6.82 6.82 0 0 0 1.42-4.75c-.1 1.13-.57 2.19-1.34 3.03m5.75-2.54-3.97-2.3c.47 1.5.46 3.1-.02 4.6zM6.99 14.51c-.58.95-1.01 1.99-1.26 3.08a6.8 6.8 0 0 0 8.38-.15c.27-.7.4-1.45.38-2.2a6.94 6.94 0 0 1-7.5-.73m-.62-.72a6.65 6.65 0 0 1-1.73-6.18 6.787 6.787 0 0 0 .4 9.21c.31-1.07.76-2.09 1.34-3.03M8.19 4.3 4.24 2.03v4.55a7.56 7.56 0 0 1 3.95-2.27ZM4.24 22.01l3.98-2.3a7.6 7.6 0 0 1-3.98-2.28z" />
  </symbol>
</svg>